[Header]
FileType HTR
DataType HTRS
FileVersion 1
NumSegments 22
NumFrames 8
DataFrameRate 24
EulerRotationOrder ZYX
CalibrationUnits mm
RotationUnits Degrees
GlobalAxisofGravity Y
BoneLengthAxis Y
ScaleFactor 1.0
[SegmentNames&Hierarchy]
reference	GLOBAL
Hips	reference
Spine	Hips
Spine1	Spine
Neck	Spine1
Head	Neck
LeftShoulder	Spine1
LeftArm	LeftShoulder
LeftForeArm	LeftArm
LeftHand	LeftForeArm
RightShoulder	Spine1
RightArm	RightShoulder
RightForeArm	RightArm
RightHand	RightForeArm
LeftUpLeg	Hips
LeftLeg	LeftUpLeg
LeftFoot	LeftLeg
LeftToeBase	LeftFoot
RightUpLeg	Hips
RightLeg	RightUpLeg
RightFoot	RightLeg
RightToeBase	RightFoot
[BasePosition]
reference	0	0	0	0	0	0	1
Hips	0	0	0	0	0	0	1
Spine	0	0	0	0	-0	90	1
Spine1	0	0	0	0	0	0	1
Neck	0	0	0	-7.352327771	-7.352327771	90	1
Head	0	0	0	0	-0	90	1
LeftShoulder	0	0	0	0	0	0	1
LeftArm	0	0	0	0	0	0	1
LeftForeArm	0	0	0	0	0	0	1
LeftHand	0	0	0	0	0	0	1
RightShoulder	0	0	0	0	-0	180	1
RightArm	0	0	0	0	-0	180	1
RightForeArm	0	0	0	0	-0	180	1
RightHand	0	0	0	0	-0	180	1
LeftUpLeg	0	0	0	0	-0	-90	1
LeftLeg	0	0	0	0	-0	-90	1
LeftFoot	0	0	0	66.57146043	-66.57146043	-90	1
LeftToeBase	0	0	0	0	-90	0	1
RightUpLeg	0	0	0	0	-0	-90	1
RightLeg	0	0	0	0	-0	-90	1
RightFoot	0	0	0	66.57146043	-66.57146043	-90	1
RightToeBase	0	0	0	0	-90	0	1
[reference]
73	0	0	0	0	-0	0	1.0
74	0	0	0	0	-0	0	1.0
75	0	0	0	0	-0	0	1.0
76	0	0	0	0	-0	0	1.0
77	0	0	0	0	-0	0	1.0
78	0	0	0	0	-0	0	1.0
79	0	0	0	0	-0	0	1.0
80	0	0	0	0	-0	0	1.0
[Hips]
73	3.389300108	7.996432781	1.679568887	9.440460205	-130.2785797	-4.171173096	1.0
74	3.218187094	7.990672112	1.651940942	8.692520142	-125.0603714	-3.385037661	1.0
75	3.059540272	8.081945419	1.580343127	7.140245438	-118.9774399	-2.118788004	1.0
76	2.938289165	8.232702255	1.525094986	4.930017471	-111.8395538	-0.06805134565	1.0
77	2.862927914	8.361148834	1.49218297	1.581510782	-105.4759216	3.67014122	1.0
78	2.819278002	8.376642227	1.483701587	1.641797543	-101.9142151	3.948461771	1.0
79	2.775723696	8.388899803	1.476123452	4.049057007	-99.32004547	2.005447388	1.0
80	2.741626263	8.399860382	1.469357014	-1.933167458	-96.87931061	9.600736618	1.0
[Spine]
73	0	0.7457100153	0	-5.858049393	-2.96364212	-92.11623383	1.0
74	0	0.7457100153	0	-6.080506325	-0.6861944795	-92.53076172	1.0
75	0	0.7457100153	0	-5.81572628	2.498394489	-92.18745422	1.0
76	0	0.7457100153	0	-5.042127132	5.710033894	-90.51033783	1.0
77	0	0.7457100153	0	-4.398774147	9.734140396	-87.86209869	1.0
78	0	0.7457100153	0	-3.991257906	14.00841713	-86.2440033	1.0
79	0	0.7457100153	0	-4.149493217	16.40076637	-85.34663391	1.0
80	0	0.7457100153	0	-5.827051163	15.16935539	-85.90366364	1.0
[Spine1]
73	0	2.140589952	0	3.791973352	-1.214004159	7.855580807	1.0
74	0	2.140589952	0	3.563296318	-0.4045294225	7.004359245	1.0
75	0	2.140589952	0	2.261661768	0.7886296511	4.471436024	1.0
76	0	2.140589952	0	0.5019196272	1.922111869	0.4064186215	1.0
77	0	2.140589952	0	-0.1786366552	3.20943284	-4.954582691	1.0
78	0	2.140589952	0	-0.2221653312	4.61899519	-10.85412216	1.0
79	0	2.140589952	0	0.7020120025	5.481153011	-13.47125721	1.0
80	0	2.140589952	0	1.884500027	5.208809376	-12.2657814	1.0
[Neck]
73	0	2.32246995	0	-22.40559196	17.94524193	-100.0344162	1.0
74	0	2.32246995	0	-22.54522705	15.08463287	-98.07452393	1.0
75	0	2.32246995	0	-20.12900925	11.39570236	-95.44917297	1.0
76	0	2.32246995	0	-17.94065666	7.171275139	-93.38230896	1.0
77	0	2.32246995	0	-16.31342125	-3.094552994	-89.46765137	1.0
78	0	2.32246995	0	-13.71125221	-2.205712795	-88.90260315	1.0
79	0	2.32246995	0	-13.7732296	-5.559743404	-88.12591553	1.0
80	0	2.32246995	0	-14.62967968	-5.95678997	-87.79840088	1.0
[Head]
73	0	1.409579992	0.1818799973	-3.218080521	12.89735699	-94.65338898	1.0
74	0	1.409579992	0.1818799973	-2.707581043	9.65990448	-94.12593842	1.0
75	0	1.409579992	0.1818799973	-2.473359346	5.24052	-93.48231506	1.0
76	0	1.409579992	0.1818799973	-1.463837624	-0.3604444265	-91.96048737	1.0
77	0	1.409579992	0.1818799973	-1.165968537	-0.3226497769	-93.30177307	1.0
78	0	1.409579992	0.1818799973	0.110186182	-10.95566368	-88.90519714	1.0
79	0	1.409579992	0.1818799973	1.098592877	-13.70340347	-89.90634155	1.0
80	0	1.409579992	0.1818799973	-0.2093468308	-14.23733044	-89.00041962	1.0
[LeftShoulder]
73	0.3668199778	1.946700096	-0.02662999928	-16.24041748	-12.85776424	1.448616624	1.0
74	0.3668199778	1.946700096	-0.02662999928	-16.02274323	-13.07247257	0.8068688512	1.0
75	0.3668199778	1.946700096	-0.02662999928	-16.90309715	-12.4959774	1.642698526	1.0
76	0.3668199778	1.946700096	-0.02662999928	-15.79053402	-12.05815983	1.213337302	1.0
77	0.3668199778	1.946700096	-0.02662999928	-17.39737129	-11.68284416	0.7997236252	1.0
78	0.3668199778	1.946700096	-0.02662999928	-18.16571045	-12.46785545	-0.01019714773	1.0
79	0.3668199778	1.946700096	-0.02662999928	-20.22987938	-12.42006493	0.5996795893	1.0
80	0.3668199778	1.946700096	-0.02662999928	-21.86398888	-12.84121418	2.295565605	1.0
[LeftArm]
73	1.140689969	0	0	35.61732101	-3.179127932	-65.08463287	1.0
74	1.140689969	0	0	38.74172211	-2.23427844	-65.89373016	1.0
75	1.140689969	0	0	41.01564407	-1.641168714	-66.29149628	1.0
76	1.140689969	0	0	45.4064827	-3.454009533	-65.37492371	1.0
77	1.140689969	0	0	48.56776428	-3.889264345	-64.99794006	1.0
78	1.140689969	0	0	49.76210785	-4.789846897	-64.39838409	1.0
79	1.140689969	0	0	51.495327	-5.046714783	-66.11808014	1.0
80	1.140689969	0	0	51.1897583	-10.38198948	-66.92858887	1.0
[LeftForeArm]
73	2.749800205	0	0	66.53964996	-136.223999	-29.08889771	1.0
74	2.749800205	0	0	59.96120834	-135.9121094	-25.40130043	1.0
75	2.749800205	0	0	49.49808121	-134.1734619	-19.97904205	1.0
76	2.749800205	0	0	42.45791245	-134.2436981	-17.04893684	1.0
77	2.749800205	0	0	33.74597931	-133.7343903	-13.16441727	1.0
78	2.749800205	0	0	24.36486244	-132.9732361	-8.989418983	1.0
79	2.749800205	0	0	21.54286194	-132.8223419	-7.227630615	1.0
80	2.749800205	0	0	20.43577766	-132.3304749	-6.68880558	1.0
[LeftHand]
73	2.295179844	0	0	-2.131447792	-19.21411324	17.33813286	1.0
74	2.295179844	0	0	-1.031785488	-19.10336304	16.43680191	1.0
75	2.295179844	0	0	1.735002279	-19.11831856	14.83299828	1.0
76	2.295179844	0	0	1.198148608	-18.95773315	12.7562027	1.0
77	2.295179844	0	0	2.170548916	-17.65332413	8.594657898	1.0
78	2.295179844	0	0	3.328086138	-16.28297043	3.79803133	1.0
79	2.295179844	0	0	5.201733589	-13.01597214	-1.144442201	1.0
80	2.295179844	0	0	5.590102673	-8.983063698	-3.008969784	1.0
[RightShoulder]
73	-0.3601199985	1.946700096	-0.02662999928	-8.929779053	3.447992086	174.1732483	1.0
74	-0.3601199985	1.946700096	-0.02662999928	-8.289331436	3.689849138	174.2028046	1.0
75	-0.3601199985	1.946700096	-0.02662999928	-8.335613251	4.276564598	174.2918549	1.0
76	-0.3601199985	1.946700096	-0.02662999928	-8.36306572	5.456910133	173.1961212	1.0
77	-0.3601199985	1.946700096	-0.02662999928	-8.628732681	5.79931879	171.0177612	1.0
78	-0.3601199985	1.946700096	-0.02662999928	-8.194244385	7.548812866	170.2186584	1.0
79	-0.3601199985	1.946700096	-0.02662999928	-8.638116837	9.021103859	168.7718506	1.0
80	-0.3601199985	1.946700096	-0.02662999928	-9.069237709	8.684617996	168.8480377	1.0
[RightArm]
73	-1.140689969	0	0	54.33996201	6.171998501	-105.8749924	1.0
74	-1.140689969	0	0	54.59465027	7.44406414	-106.6732025	1.0
75	-1.140689969	0	0	50.81254578	11.42330837	-109.8298492	1.0
76	-1.140689969	0	0	45.8217926	19.69566345	-115.7736359	1.0
77	-1.140689969	0	0	41.65954208	30.89238167	-124.8540344	1.0
78	-1.140689969	0	0	37.24775314	43.70241165	-138.8407593	1.0
79	-1.140689969	0	0	27.69721031	54.3704834	-151.0591431	1.0
80	-1.140689969	0	0	21.92161179	50.1313324	-144.1170959	1.0
[RightForeArm]
73	-2.749800205	0	0	-107.5585709	43.79815674	29.3248291	1.0
74	-2.749800205	0	0	-103.880188	41.09289932	29.96836472	1.0
75	-2.749800205	0	0	-100.5084076	40.04971313	31.05640984	1.0
76	-2.749800205	0	0	-91.04476929	42.33634949	39.07736206	1.0
77	-2.749800205	0	0	-62.5927887	47.67468262	68.16217041	1.0
78	-2.749800205	0	0	-14.58780766	38.32369232	128.2499084	1.0
79	-2.749800205	0	0	8.370720863	12.46160698	169.6603699	1.0
80	-2.749800205	0	0	-2.878175259	18.72051811	158.8573914	1.0
[RightHand]
73	-2.295179844	0	0	2.341503382	16.43488693	152.9317169	1.0
74	-2.295179844	0	0	1.562880874	15.92920303	155.3934937	1.0
75	-2.295179844	0	0	2.622281075	14.24403858	163.4068298	1.0
76	-2.295179844	0	0	2.488059998	10.55635738	167.9441681	1.0
77	-2.295179844	0	0	3.287897348	6.359212875	173.0355225	1.0
78	-2.295179844	0	0	5.026791096	5.15655756	167.0339966	1.0
79	-2.295179844	0	0	8.322579384	0.1765028238	167.660675	1.0
80	-2.295179844	0	0	0.6539190412	1.124459386	172.4512329	1.0
[LeftUpLeg]
73	0.9094099998	0	0	-33.71015549	2.783509493	94.80038452	1.0
74	0.9094099998	0	0	-33.02437973	0.2243430614	94.56764984	1.0
75	0.9094099998	0	0	-30.17916489	-1.73411274	93.59370422	1.0
76	0.9094099998	0	0	-27.24500275	-7.092692852	94.06732178	1.0
77	0.9094099998	0	0	-24.76604652	-10.81545544	93.9029007	1.0
78	0.9094099998	0	0	-23.76387978	-14.85442352	94.15267181	1.0
79	0.9094099998	0	0	-23.93093109	-18.63429642	95.42289734	1.0
80	0.9094099998	0	0	-26.88517761	-17.36388397	96.4461441	1.0
[LeftLeg]
73	0	-4.498080254	0	53.92896652	-10.66171837	59.74230576	1.0
74	0	-4.498080254	0	53.7400589	-11.32147598	60.58869934	1.0
75	0	-4.498080254	0	49.66746902	-11.64618301	67.69244385	1.0
76	0	-4.498080254	0	43.77127075	-12.73575115	71.93675232	1.0
77	0	-4.498080254	0	37.52777863	-13.32070351	77.82699585	1.0
78	0	-4.498080254	0	33.14237976	-11.14049721	80.1046524	1.0
79	0	-4.498080254	0	31.4060955	-7.275289536	80.28666687	1.0
80	0	-4.498080254	0	34.78897858	-8.683774948	78.40057373	1.0
[LeftFoot]
73	0	-3.729400158	0	-57.76447296	120.0719147	3.212768555	1.0
74	0	-3.729400158	0	-61.36646271	119.2450562	-0.604323864	1.0
75	0	-3.729400158	0	-70.4644165	113.3663712	-11.46946716	1.0
76	0	-3.729400158	0	-72.65802002	111.0422134	-16.0459671	1.0
77	0	-3.729400158	0	-76.08364105	107.0105896	-22.90602112	1.0
78	0	-3.729400158	0	-72.21987915	106.3808594	-21.33679581	1.0
79	0	-3.729400158	0	-75.29934692	107.8207016	-24.18999863	1.0
80	0	-3.729400158	0	-78.53283691	108.8639679	-25.91599655	1.0
[LeftToeBase]
73	0	-0.5911099911	1.364109993	0	0	0	1.0
74	0	-0.5911099911	1.364109993	0	0	0	1.0
75	0	-0.5911099911	1.364109993	0	0	0	1.0
76	0	-0.5911099911	1.364109993	0	0	0	1.0
77	0	-0.5911099911	1.364109993	0	0	0	1.0
78	0	-0.5911099911	1.364109993	0	0	0	1.0
79	0	-0.5911099911	1.364109993	0	0	0	1.0
80	0	-0.5911099911	1.364109993	0	0	0	1.0
[RightUpLeg]
73	-0.9094099998	0	0	-5.484978676	-20.33912849	81.19841003	1.0
74	-0.9094099998	0	0	-4.480959415	-22.91745377	81.1605835	1.0
75	-0.9094099998	0	0	-0.5035998225	-25.96650314	81.14083099	1.0
76	-0.9094099998	0	0	5.385786533	-29.30364227	81.23679352	1.0
77	-0.9094099998	0	0	10.26885033	-31.22276497	81.95066833	1.0
78	-0.9094099998	0	0	12.75614071	-32.00072098	81.17179108	1.0
79	-0.9094099998	0	0	15.29142666	-36.11693573	78.78266907	1.0
80	-0.9094099998	0	0	16.17767334	-38.53058624	78.32645416	1.0
[RightLeg]
73	0	-4.498080254	0	45.46583176	-12.92130852	60.70043182	1.0
74	0	-4.498080254	0	47.74443436	-6.770339012	66.70206451	1.0
75	0	-4.498080254	0	44.96977997	-0.2868021727	77.24784851	1.0
76	0	-4.498080254	0	38.31672287	-4.159601212	78.74482727	1.0
77	0	-4.498080254	0	29.90929794	-8.791973114	80.65396881	1.0
78	0	-4.498080254	0	24.83358383	-7.112664223	84.66665649	1.0
79	0	-4.498080254	0	22.07091904	-4.238502502	86.38976288	1.0
80	0	-4.498080254	0	19.39754868	-15.56379128	82.44102478	1.0
[RightFoot]
73	0	-3.729400158	0	86.85733795	35.24517822	145.9821014	1.0
74	0	-3.729400158	0	81.32850647	38.44258881	134.1130981	1.0
75	0	-3.729400158	0	66.27261353	42.48538589	115.0549316	1.0
76	0	-3.729400158	0	67.71727753	42.6665802	111.9170761	1.0
77	0	-3.729400158	0	76.87973022	44.76633453	113.4224243	1.0
78	0	-3.729400158	0	78.61500549	46.97812653	112.1743469	1.0
79	0	-3.729400158	0	81.58512878	47.03540802	113.216629	1.0
80	0	-3.729400158	0	104.7339706	42.42957306	137.2572784	1.0
[RightToeBase]
73	0	-0.5911099911	1.364109993	0	0	0	1.0
74	0	-0.5911099911	1.364109993	0	0	0	1.0
75	0	-0.5911099911	1.364109993	0	0	0	1.0
76	0	-0.5911099911	1.364109993	0	0	0	1.0
77	0	-0.5911099911	1.364109993	0	0	0	1.0
78	0	-0.5911099911	1.364109993	0	0	0	1.0
79	0	-0.5911099911	1.364109993	0	0	0	1.0
80	0	-0.5911099911	1.364109993	0	0	0	1.0
[EndOfFile]
